<svg fill="none" height="16" viewBox="0 0 22 16" width="22" xmlns="http://www.w3.org/2000/svg">
    <path d="M5.5 15.5C4.11667 15.5 2.93333 15.025 1.95 14.075C0.983333 13.1083 0.5 11.9333 0.5 10.55C0.5 9.3 0.9 8.20833 1.7 7.275C2.5 6.325 3.49167 5.76667 4.675 5.6C4.99167 4.1 5.74167 2.875 6.925 1.925C8.10833 0.974999 9.46667 0.499999 11 0.499999C12.8167 0.499999 14.35 1.13333 15.6 2.4C16.8667 3.65 17.5 5.18333 17.5 7V7.5H17.8C18.8667 7.58333 19.75 8.00833 20.45 8.775C21.15 9.54167 21.5 10.45 21.5 11.5C21.5 12.6167 21.1167 13.5667 20.35 14.35C19.5833 15.1167 18.6417 15.5 17.525 15.5H12.05C11.55 15.5 11.125 15.325 10.775 14.975C10.425 14.625 10.25 14.2 10.25 13.7V8.175L8.925 9.525C8.79167 9.65833 8.61667 9.725 8.4 9.725C8.18333 9.725 8.00833 9.65833 7.875 9.525C7.725 9.375 7.65 9.2 7.65 9C7.66667 8.78333 7.74167 8.60833 7.875 8.475L10.375 5.975C10.4583 5.875 10.55 5.80833 10.65 5.775C10.7667 5.74167 10.8833 5.725 11 5.725C11.1167 5.725 11.225 5.74167 11.325 5.775C11.4417 5.80833 11.5417 5.875 11.625 5.975L14.125 8.475C14.2583 8.60833 14.325 8.78333 14.325 9C14.3417 9.2 14.275 9.375 14.125 9.525C13.9917 9.65833 13.8167 9.725 13.6 9.725C13.3833 9.725 13.2083 9.65 13.075 9.5L11.75 8.175V13.7C11.75 13.7667 11.7833 13.8333 11.85 13.9C11.9167 13.9667 11.9833 14 12.05 14H17.5C18.2 14 18.7917 13.7583 19.275 13.275C19.7583 12.7917 20 12.2 20 11.5C20 10.8 19.7583 10.2083 19.275 9.725C18.7917 9.24167 18.2 9 17.5 9H16V7C16 5.61667 15.5083 4.44167 14.525 3.475C13.5583 2.49167 12.3833 2 11 2C9.61667 2 8.43333 2.49167 7.45 3.475C6.48333 4.44167 6 5.61667 6 7H5.475C4.525 7 3.70833 7.34167 3.025 8.025C2.34167 8.70833 2 9.53333 2 10.5C2 11.4667 2.34167 12.2917 3.025 12.975C3.70833 13.6583 4.53333 14 5.5 14H7.25C7.46667 14 7.64167 14.075 7.775 14.225C7.925 14.3583 8 14.5333 8 14.75C8 14.9667 7.925 15.15 7.775 15.3C7.64167 15.4333 7.46667 15.5 7.25 15.5H5.5Z"
          fill="#1565C0"/>
</svg>
