<svg height="32" viewBox="0 0 32 32" width="32" xmlns="http://www.w3.org/2000/svg">
    <g data-name="Group 17323" id="Group_17323" transform="translate(-687 -187)">
        <circle cx="16" cy="16" data-name="Ellipse 5515" fill="#f9e9dc" id="Ellipse_5515" r="16"
                transform="translate(687 187)"/>
        <g data-name="Group 19021" id="Group_19021" transform="translate(430.414 -1771.798)">
            <path d="M8.868,300.873v2.133a10.443,10.443,0,0,0-2.391-2.384,4.836,4.836,0,0,0-2.114-.817,3.014,3.014,0,0,0-.922.007,1,1,0,0,0-.676.365,1,1,0,0,0-.125.759,3.013,3.013,0,0,0,.292.867,4.64,4.64,0,0,0,1.436,1.7,6.374,6.374,0,0,0,4.5.858v1.728H4.407a.6.6,0,0,0-.595.595v.594H14.518v-.594a.6.6,0,0,0-.595-.595H9.463v-.879a6.542,6.542,0,0,0,4.714-1.093,4.629,4.629,0,0,0,1.332-1.776,3.027,3.027,0,0,0,.242-.885.873.873,0,0,0-.867-1.076,3.045,3.045,0,0,0-.922.048,4.829,4.829,0,0,0-2.061.94,10.544,10.544,0,0,0-2.437,2.826v-3.32Zm-4.755,7a.482.482,0,0,0,0,.058l.6,2.975a.718.718,0,0,0,.173.351.583.583,0,0,0,.417.184h7.732a.582.582,0,0,0,.417-.184.714.714,0,0,0,.171-.351l.595-2.975a.458.458,0,0,0,0-.058Z"
                  fill="#f58220"
                  id="plant" transform="translate(262.968 1673.248)"/>
            <g data-name="Group 8647" id="Group_8647" transform="translate(268.457 1964.798)">
                <path d="M279.337,213.406c0,2.061-1.808,3.127-3.67,3.127a3.923,3.923,0,0,1-3-1.24,2.649,2.649,0,0,1-.335-.5,2.958,2.958,0,0,1-.328-1.389,3.005,3.005,0,0,1,.126-.821,5.91,5.91,0,0,1,1.849-2.8.629.629,0,0,0,.145-.862l-.773-1.133a.361.361,0,0,1,.095-.5.376.376,0,0,1,.189-.063h.032a.347.347,0,0,1,.208.057l.492.316a.6.6,0,0,0,.742-.079l.23-.23a.472.472,0,0,1,.666,0h0l.234.234a.6.6,0,0,0,.738.082l.536-.335a.341.341,0,0,1,.189-.057h.025a.363.363,0,0,1,.338.385.345.345,0,0,1-.063.18l-.783,1.149a.632.632,0,0,0,.145.862A5.478,5.478,0,0,1,279.337,213.406Z" data-name="Path 4494"
                      fill="#f58220"
                      id="Path_4494" transform="translate(-272 -207.15)"/>
                <g data-name="Group 8646" id="Group_8646" transform="translate(2.619 4.417)">
                    <path d="M356.133,349.038h-.6a.237.237,0,0,1,0-.473h.6a.5.5,0,0,0,0-.991h-.426a.237.237,0,0,1,0-.473h.426a.969.969,0,0,1,0,1.938Z" data-name="Path 4504"
                          fill="#fff"
                          id="Path_4504" transform="translate(-355.29 -347.1)"/>
                    <path d="M356.949,347.673h-1.726a.237.237,0,1,1,0-.473h1.726a.237.237,0,1,1,0,.473Zm0,.72h-1.726a.237.237,0,0,1,0-.473h1.726a.237.237,0,0,1,0,.473Zm-.429,2.013a.246.246,0,0,1-.164-.066l-1.31-1.272a.237.237,0,0,1,.325-.344l0,0,1.31,1.272a.238.238,0,0,1,.006.335A.234.234,0,0,1,356.52,350.406Z" data-name="Path 4505"
                          fill="#fff"
                          id="Path_4505" transform="translate(-354.972 -347.197)"/>
                </g>
            </g>
        </g>
    </g>
</svg>
