<svg height="32" viewBox="0 0 32 32" width="32" xmlns="http://www.w3.org/2000/svg">
    <g data-name="Group 19022" id="Group_19022" transform="translate(-687 -187)">
        <circle cx="16" cy="16" data-name="Ellipse 5515" fill="#f9e9dc" id="Ellipse_5515" r="16"
                transform="translate(687 187)"/>
        <g id="home-loan" transform="translate(683.18 183.26)">
            <path d="M11.5,14.025l5.05-3.367a5.092,5.092,0,0,1,1.217-.7,2.244,2.244,0,0,1,1.3,0,5.1,5.1,0,0,1,1.217.7l5.05,3.367a4.931,4.931,0,0,1,.917.692,2.245,2.245,0,0,1,.515.962c.074.3-.261.509-.548.4a7.86,7.86,0,0,0-9.981,10.441,2.8,2.8,0,0,1,.311.9.514.514,0,0,1-.293.444,2.325,2.325,0,0,1-.849.067H13.367a5.6,5.6,0,0,1-1.981-.171,2.244,2.244,0,0,1-1.215-1.215A5.6,5.6,0,0,1,10,24.563V16.826a4.931,4.931,0,0,1,.067-1.146,2.244,2.244,0,0,1,.515-.962A4.916,4.916,0,0,1,11.5,14.025Z" data-name="Path 24213"
                  fill="#f58220"
                  fill-rule="evenodd" id="Path_24213" transform="translate(0 0)"/>
            <path d="M39.888,34.4a5.611,5.611,0,1,1-5.611-5.611A5.611,5.611,0,0,1,39.888,34.4Z" data-name="Path 24214"
                  fill="#f58220"
                  id="Path_24214" transform="translate(-10.811 -10.959)"/>
            <path d="M33.505,28.578a5.05,5.05,0,1,0,5.05,5.05A5.05,5.05,0,0,0,33.505,28.578Zm-6.172,5.05A6.172,6.172,0,1,1,33.505,39.8,6.173,6.173,0,0,1,27.333,33.628Z" data-name="Path 24215"
                  fill="#f58220"
                  fill-rule="evenodd" id="Path_24215" transform="translate(-10.039 -10.187)"/>
            <path d="M35.4,37.6a.561.561,0,0,1,.561-.561h1.181a.561.561,0,0,1,0,1.122H35.964A.561.561,0,0,1,35.4,37.6Zm0-3.543a.561.561,0,0,1,.561-.561h4.43a.561.561,0,0,1,0,1.122h-4.43a.561.561,0,0,1-.561-.561Zm0,1.772a.561.561,0,0,1,.561-.561h4.43a.561.561,0,0,1,0,1.122h-4.43a.561.561,0,0,1-.561-.561Z" data-name="Path 24216"
                  fill="#fff"
                  fill-rule="evenodd" id="Path_24216" transform="translate(-14.712 -13.683)"/>
            <path d="M35.568,42.077a.561.561,0,0,1,.793,0l3.133,3.132A.561.561,0,1,1,38.7,46l-3.132-3.132a.561.561,0,0,1,0-.794Z" data-name="Path 24217"
                  fill="#fff"
                  fill-rule="evenodd" id="Path_24217" transform="translate(-14.713 -18.56)"/>
            <path d="M40.551,35.824a1.291,1.291,0,0,0-1.358-1.211V33.49a2.338,2.338,0,1,1,0,4.666V37.034a1.291,1.291,0,0,0,1.358-1.211Z" data-name="Path 24218"
                  fill="#fff"
                  fill-rule="evenodd" id="Path_24218" transform="translate(-16.908 -13.682)"/>
        </g>
    </g>
</svg>
