<svg fill="none" height="21" viewBox="0 0 16 21" width="16" xmlns="http://www.w3.org/2000/svg">
    <path d="M8 13.75C7.78333 13.75 7.6 13.6833 7.45 13.55C7.31667 13.4 7.25 13.2167 7.25 13V2.725L5.925 4.05C5.775 4.18333 5.6 4.25 5.4 4.25C5.2 4.25 5.025 4.175 4.875 4.025C4.725 3.875 4.65 3.7 4.65 3.5C4.65 3.3 4.725 3.125 4.875 2.975L7.375 0.474999C7.45833 0.391665 7.55 0.333332 7.65 0.299999C7.76667 0.249999 7.88333 0.224999 8 0.224999C8.11667 0.224999 8.225 0.249999 8.325 0.299999C8.44167 0.333332 8.54167 0.391665 8.625 0.474999L11.125 2.975C11.275 3.125 11.35 3.30833 11.35 3.525C11.35 3.725 11.275 3.9 11.125 4.05C10.975 4.18333 10.8 4.25 10.6 4.25C10.4 4.25 10.225 4.18333 10.075 4.05L8.75 2.725V13C8.75 13.2167 8.675 13.4 8.525 13.55C8.39167 13.6833 8.21667 13.75 8 13.75ZM2.3 20.5C1.8 20.5 1.375 20.325 1.025 19.975C0.675 19.625 0.5 19.2 0.5 18.7V8.3C0.5 7.8 0.675 7.375 1.025 7.025C1.375 6.675 1.8 6.5 2.3 6.5H4.125C4.325 6.5 4.5 6.575 4.65 6.725C4.8 6.85833 4.875 7.03333 4.875 7.25C4.875 7.46667 4.8 7.65 4.65 7.8C4.5 7.93333 4.325 8 4.125 8H2.3C2.23333 8 2.16667 8.03333 2.1 8.1C2.03333 8.16667 2 8.23333 2 8.3V18.7C2 18.7667 2.03333 18.8333 2.1 18.9C2.16667 18.9667 2.23333 19 2.3 19H13.7C13.7667 19 13.8333 18.9667 13.9 18.9C13.9667 18.8333 14 18.7667 14 18.7V8.3C14 8.23333 13.9667 8.16667 13.9 8.1C13.8333 8.03333 13.7667 8 13.7 8H11.875C11.675 8 11.5 7.93333 11.35 7.8C11.2 7.65 11.125 7.46667 11.125 7.25C11.125 7.03333 11.2 6.85833 11.35 6.725C11.5 6.575 11.675 6.5 11.875 6.5H13.7C14.2 6.5 14.625 6.675 14.975 7.025C15.325 7.375 15.5 7.8 15.5 8.3V18.7C15.5 19.2 15.325 19.625 14.975 19.975C14.625 20.325 14.2 20.5 13.7 20.5H2.3Z"
          fill="#1565C0"/>
</svg>
