<svg height="24" viewBox="0 0 24 24" width="24">
    <g class="ng-star-inserted" data-name="Group 19055" id="Group_19055" transform="translate(-780 -56)">
        <g data-name="Group 13034" id="Group_13034">
            <rect data-name="Rectangle 4096" fill="#fff" height="24" id="Rectangle_4096" opacity="0"
                  transform="translate(780 56)" width="24"></rect>
        </g>
        <path d="M95.024,53.51H93.914a.712.712,0,0,0,0,1.424h8.543a.712.712,0,1,0,0-1.424h-1.109a4.03,4.03,0,0,1-.979-2.136H107.3a1.565,1.565,0,0,0,1.566-1.566V38.7a1.565,1.565,0,0,0-1.566-1.566H104a1.606,1.606,0,0,0-.243-.159l-3.425-1.8A1.57,1.57,0,0,0,99.6,35H96.769a1.57,1.57,0,0,0-.728.179l-3.425,1.8a1.606,1.606,0,0,0-.243.159h-3.3A1.565,1.565,0,0,0,87.507,38.7V49.808a1.565,1.565,0,0,0,1.566,1.566H96a4.031,4.031,0,0,1-.979,2.136Zm-5.951-3.56H107.3a.143.143,0,0,0,.142-.142V38.7a.143.143,0,0,0-.142-.142h-2.705v1.281a1.566,1.566,0,0,1-1.424,1.56v3.572a1.565,1.565,0,0,1,1.424,1.56v.427a1.565,1.565,0,0,1-1.566,1.566H93.345a1.565,1.565,0,0,1-1.566-1.566v-.427a1.565,1.565,0,0,1,1.424-1.56V41.4a1.566,1.566,0,0,1-1.424-1.56V38.559H89.073a.143.143,0,0,0-.142.142V49.808a.143.143,0,0,0,.142.142Zm11.96-4.984h.712v-3.56h-.712Zm-4.272,0H99.61v-3.56H96.762Zm-2.136,0h.712v-3.56h-.712Z"
              fill="#fff"
              fill-rule="evenodd" id="noun-online-banking-5102215" transform="translate(693.493 23)"></path>
    </g>
</svg>
