<svg height="24" viewBox="0 0 24 24" width="24" xmlns="http://www.w3.org/2000/svg">
    <g data-name="Group 17329" id="Group_17329" transform="translate(-427 -236)">
        <rect data-name="Rectangle 6003" fill="#fff" height="24" id="Rectangle_6003" opacity="0"
              transform="translate(427 236)" width="24"/>
        <g id="money" transform="translate(429.005 236.023)">
            <path d="M12.95,45.992A1.771,1.771,0,0,1,14.667,47.7c.013,1.354,0,2.708,0,4.062a1.773,1.773,0,0,1-1.705,1.716c-3.081.029-6.162.009-9.244,0A1.771,1.771,0,0,1,2,51.77c-.013-1.354,0-2.708,0-4.062a1.774,1.774,0,0,1,1.706-1.716C6.788,45.963,9.869,45.982,12.95,45.992Zm-9.8,5.286q0,.235,0,.47a.594.594,0,0,0,.565.576l.491.007L4.2,52.3A1.764,1.764,0,0,0,3.152,51.277Zm10.369,0a1.812,1.812,0,0,0-1.051,1.047h.469a.593.593,0,0,0,.576-.565Q13.52,51.518,13.521,51.277ZM8.347,47.719a2.015,2.015,0,1,1-.381,4,2.015,2.015,0,0,1,.329-4ZM4.2,47.143H3.73a.6.6,0,0,0-.577.565c0,.163,0,.326-.006.489l.033-.012A1.763,1.763,0,0,0,4.2,47.143Zm8.269-.006a1.814,1.814,0,0,0,1.048,1.051q0-.234,0-.468a.593.593,0,0,0-.565-.576Z" data-name="Path 23346"
                  fill="#fff"
                  fill-rule="evenodd" id="Path_23346" transform="translate(0 -39)"/>
            <path d="M16.879,48.215a.6.6,0,0,1,.493.563c0,1.307,0,2.614,0,3.92a2.531,2.531,0,0,1-2.478,2.457H5.158A.582.582,0,0,1,4.866,54.1a.489.489,0,0,1,.292-.081c3.251,0,6.5.031,9.753,0a1.376,1.376,0,0,0,1.321-1.336v-3.9A.6.6,0,0,1,16.879,48.215Z" data-name="Path 23347"
                  fill="#fff"
                  id="Path_23347" transform="translate(-1.106 -39.039)"/>
            <path d="M16.988,48.215a.611.611,0,0,1,.5.57c0,1.1,0,2.2,0,3.295a3.253,3.253,0,0,1-3.18,3.161H5.15a.6.6,0,0,1-.529-.8.586.586,0,0,1,.427-.341.6.6,0,0,1,.1-.009c3.056,0,6.112.01,9.168,0a2.08,2.08,0,0,0,2.017-2.03V48.785A.6.6,0,0,1,16.988,48.215Z" data-name="Path 23348"
                  fill="#fff"
                  id="Path_23348" transform="translate(0.508 -37.398)"/>
            <path d="M11.863,51a.863.863,0,1,0,.593,1.5A.883.883,0,0,0,11.891,51Z" data-name="Path 23349"
                  fill="#fff" fill-rule="evenodd"
                  id="Path_23349" transform="translate(-3.585 -41.164)"/>
        </g>
    </g>
</svg>
