<svg height="32" viewBox="0 0 32 32" width="32" xmlns="http://www.w3.org/2000/svg">
    <g data-name="Group 17323" id="Group_17323" transform="translate(-687 -187)">
        <circle cx="16" cy="16" data-name="Ellipse 5515" fill="#f9e9dc" id="Ellipse_5515" r="16"
                transform="translate(687 187)"/>
        <g data-name="Group 19024" id="Group_19024" transform="translate(440.58 -1770.139)">
            <g data-name="Group 17947" id="Group_17947" transform="translate(253 1975.278)">
                <path d="M236.381,339.955a23.712,23.712,0,0,1-2.307.561,2.655,2.655,0,0,1-1.912,1.122,4.273,4.273,0,0,1-.748.042,20.166,20.166,0,0,1-2.287-.187c-.062,0-.125-.021-.208-.021a.412.412,0,0,1-.374-.437.421.421,0,0,1,.457-.395c.062,0,.125.021.208.021a14.051,14.051,0,0,0,2.827.125c1.226-.187,1.6-.935,1.517-1.559a1,1,0,0,0-1.019-.977,22.387,22.387,0,0,1-2.827-.146,14.6,14.6,0,0,0-3.1-.1,10.639,10.639,0,0,0-2.058.686c-.187.083-.374.166-.561.229v5.4a25.328,25.328,0,0,0,4.885,1.33c2.432.187,7.172-2.557,8.544-3.451a1.238,1.238,0,0,0-1.039-2.245Z" data-name="Path 23752"
                      fill="#f58220"
                      id="Path_23752" transform="translate(-219.252 -337.949)"/>
                <path d="M99.667,338.24H96.881a.559.559,0,0,0-.561.561v6.153a.559.559,0,0,0,.561.561h2.806a.559.559,0,0,0,.561-.561V338.8a.591.591,0,0,0-.582-.561Z" data-name="Path 23753"
                      fill="#f58220"
                      id="Path_23753" transform="translate(-96.32 -338.229)"/>
            </g>
            <g id="noun-loan-4301104" transform="translate(257.115 1963.289)">
                <path d="M260.276,43.75h-5.537a.989.989,0,0,0-.989.989v3.783a3.161,3.161,0,0,1,2.344,1.558.152.152,0,0,1,.03,0h2.769a.2.2,0,0,1,0,.4h-2.6a3.16,3.16,0,0,1-1.4,3.955H258.1a.211.211,0,0,0,.13-.048l2.966-2.571a.184.184,0,0,0,.042-.055.18.18,0,0,0,.026-.095V44.739a.989.989,0,0,0-.989-.989Zm-4.153,1.582h1.671a.2.2,0,0,1,0,.4h-1.671a.2.2,0,0,1,0-.4Zm0,1.187h2.769a.2.2,0,0,1,0,.4h-2.769a.2.2,0,0,1,0-.4Zm0,1.187h2.769a.2.2,0,0,1,0,.4h-2.769a.2.2,0,0,1,0-.4Zm2.769,1.582h-2.769a.2.2,0,0,1,0-.4h2.769a.2.2,0,0,1,0,.4ZM258.3,53.8V52.056a.2.2,0,0,1,.2-.2h2.041Z" data-name="Path 24057"
                      fill="#f58220"
                      id="Path_24057" transform="translate(-250.586 -43.75)"/>
                <path d="M168.588,328.425a2.41,2.41,0,0,0,.584-.073,2.338,2.338,0,0,0,0-4.528,2.41,2.41,0,0,0-.584-.073,2.337,2.337,0,0,0,0,4.674Z" data-name="Path 24058"
                      fill="#f58220"
                      id="Path_24058" transform="translate(-165.819 -318.177)"/>
                <path d="M116.519,276.79a2.677,2.677,0,0,0,.473-.041,2.769,2.769,0,0,0-.077-5.468,2.891,2.891,0,0,0-.4-.028,2.769,2.769,0,1,0,0,5.537Zm0-4.746a1.987,1.987,0,1,1-1.4.582A1.978,1.978,0,0,1,116.519,272.043Z" data-name="Path 24059"
                      fill="#f58220"
                      id="Path_24059" transform="translate(-113.75 -266.111)"/>
                <g data-name="Group 17948" id="Group_17948" transform="translate(1.533 6.119)">
                    <path d="M356.23,349.263h-.666a.264.264,0,1,1,0-.529h.666a.553.553,0,1,0,0-1.106h-.476a.264.264,0,1,1,0-.529h.476a1.082,1.082,0,1,1,0,2.164Z" data-name="Path 4504"
                          fill="#fff"
                          id="Path_4504" transform="translate(-355.288 -347.1)"/>
                    <path d="M357.179,347.729h-1.927a.264.264,0,1,1,0-.529h1.927a.264.264,0,1,1,0,.529Zm0,.8h-1.927a.264.264,0,0,1,0-.529h1.927a.264.264,0,0,1,0,.529Zm-.479,2.248a.275.275,0,0,1-.183-.074l-1.462-1.42a.264.264,0,0,1,.363-.384l0,0,1.462,1.42a.266.266,0,0,1,.007.374A.261.261,0,0,1,356.7,350.78Z" data-name="Path 4505"
                          fill="#fff"
                          id="Path_4505" transform="translate(-354.972 -347.197)"/>
                </g>
            </g>
        </g>
    </g>
</svg>
