<svg height="32" viewBox="0 0 32 32" width="32" xmlns="http://www.w3.org/2000/svg">
    <g data-name="Group 17323" id="Group_17323" transform="translate(-687 -187)">
        <circle cx="16" cy="16" data-name="Ellipse 5515" fill="#f9e9dc" id="Ellipse_5515" r="16"
                transform="translate(687 187)"/>
        <g data-name="Group 19017" id="Group_19017" transform="translate(4801.589 -3116)">
            <path d="M11.757,5.081H8.162V2.514A.514.514,0,0,0,7.649,2H2.514A.514.514,0,0,0,2,2.514v9.243a.514.514,0,0,0,.514.514H3.541V9.7a.514.514,0,0,1,.514-.514H6.108a.514.514,0,0,1,.514.514V12.27h5.135a.514.514,0,0,0,.514-.514V5.595A.514.514,0,0,0,11.757,5.081ZM6.108,7.135H4.054a.514.514,0,0,1,0-1.027H6.108a.514.514,0,0,1,0,1.027Zm0-2.054H4.054a.514.514,0,0,1,0-1.027H6.108a.514.514,0,0,1,0,1.027Zm4.108,5.135a.514.514,0,0,1-1.027,0V9.7a.514.514,0,0,1,1.027,0Zm0-2.568a.514.514,0,0,1-1.027,0V7.135a.514.514,0,1,1,1.027,0Z" data-name="Layer 2"
                  fill="#f58220"
                  id="Layer_2" transform="translate(-4110.589 3309)"/>
            <path d="M284.351,217.682c0,3.469-3.044,5.265-6.178,5.265a6.6,6.6,0,0,1-5.057-2.088,4.459,4.459,0,0,1-.563-.839,4.979,4.979,0,0,1-.552-2.337,5.059,5.059,0,0,1,.212-1.381,9.948,9.948,0,0,1,3.113-4.717,1.059,1.059,0,0,0,.244-1.45l-1.3-1.907a.607.607,0,0,1,.159-.845.634.634,0,0,1,.319-.106h.053a.584.584,0,0,1,.351.1l.829.531a1,1,0,0,0,1.248-.133l.388-.388a.8.8,0,0,1,1.121,0h0l.393.393a1,1,0,0,0,1.243.138l.9-.563a.575.575,0,0,1,.319-.1h.043a.611.611,0,0,1,.568.648.579.579,0,0,1-.106.3l-1.317,1.934a1.064,1.064,0,0,0,.244,1.45C282.561,212.72,284.351,215.589,284.351,217.682Z" data-name="Path 24221"
                  fill="#f58220"
                  id="Path_24221" stroke="#f9e9dc" stroke-width="1" transform="translate(-4372.397 3104.47)"/>
            <g data-name="Group 19016" id="Group_19016" transform="translate(-4095.989 3318.569)">
                <path d="M356.7,350.362h-1a.4.4,0,0,1,0-.8h1a.834.834,0,1,0,0-1.668h-.717a.4.4,0,1,1,0-.8h.717a1.631,1.631,0,1,1,0,3.262Z" data-name="Path 4504"
                      fill="#fff"
                      id="Path_4504" transform="translate(-355.283 -347.1)"/>
                <path d="M358.3,348h-2.906a.4.4,0,0,1,0-.8H358.3a.4.4,0,0,1,0,.8Zm0,1.211h-2.906a.4.4,0,0,1,0-.8H358.3a.4.4,0,0,1,0,.8Zm-.722,3.389a.414.414,0,0,1-.276-.112l-2.2-2.141a.4.4,0,0,1,.547-.579l.005.005,2.2,2.141a.4.4,0,0,1,.011.563A.394.394,0,0,1,357.577,352.6Z" data-name="Path 4505"
                      fill="#fff"
                      id="Path_4505" transform="translate(-354.972 -347.195)"/>
            </g>
        </g>
    </g>
</svg>
