<svg height="24" viewBox="0 0 24 24" width="24" xmlns="http://www.w3.org/2000/svg">
    <g data-name="Group 13025" id="Group_13025" transform="translate(-453 -56)">
        <rect data-name="Rectangle 4094" fill="#007dc5" height="24" id="Rectangle_4094" opacity="0"
              transform="translate(453 56)" width="24"/>
        <path d="M18.913,7.265a8.623,8.623,0,0,0-5.677-3.141.87.87,0,0,0-1.722,0A8.649,8.649,0,0,0,5.8,7.2a9.109,9.109,0,0,0-2.414,6.218.459.459,0,0,0-.009.091.257.257,0,0,0,.251.251H3.76A.253.253,0,0,0,4,13.569a2.186,2.186,0,0,1,.692-1.1,1.766,1.766,0,0,1,1.151-.428,1.745,1.745,0,0,1,1.147.433,2.215,2.215,0,0,1,.692,1.1.253.253,0,0,0,.242.19h.208a.253.253,0,0,0,.242-.19,1.987,1.987,0,0,1,1.852-1.532,1.888,1.888,0,0,1,1.6.948v6.4a.764.764,0,1,1-1.527,0,.591.591,0,1,0-1.181,0,1.943,1.943,0,1,0,3.886,0V13.015a1.85,1.85,0,0,1,1.6-.978,1.752,1.752,0,0,1,1.142.428,2.238,2.238,0,0,1,.688,1.1.253.253,0,0,0,.242.19h.208a.253.253,0,0,0,.242-.19,2.2,2.2,0,0,1,.692-1.108,1.753,1.753,0,0,1,2.306,0,2.191,2.191,0,0,1,.688,1.108.253.253,0,0,0,.242.19h.065a.242.242,0,0,0,.182-.078.273.273,0,0,0,.074-.186A9.372,9.372,0,0,0,18.913,7.265Z" data-name="Icon ionic-ios-umbrella"
              fill="#007dc5"
              id="Icon_ionic-ios-umbrella" transform="translate(452.627 55.625)"/>
    </g>
</svg>
