<svg xmlns="http://www.w3.org/2000/svg" width="24" height="24" viewBox="0 0 24 24">
  <g id="Group_13028" data-name="Group 13028" transform="translate(-585 -56)">
    <rect id="Rectangle_4095" data-name="Rectangle 4095" width="24" height="24" transform="translate(585 56)" fill="#fff" opacity="0"/>
    <g id="Group_8440" data-name="Group 8440" transform="translate(589 59)">
      <path id="Icon_awesome-piggy-bank" data-name="Icon awesome-piggy-bank" d="M.5,9.334h.922A5.016,5.016,0,0,1,2.592,7.693L2,5.334H3A2.981,2.981,0,0,1,5.283,6.405,4.956,4.956,0,0,1,6,6.334h4a5.005,5.005,0,0,1,4.9,4h1.35a.751.751,0,0,0,.734-.9.77.77,0,0,0-.766-.6H16.19A.188.188,0,0,1,16,8.646V8.021a.188.188,0,0,1,.188-.188,1.79,1.79,0,0,1,1.8,1.519,1.751,1.751,0,0,1-1.734,1.981H15a4.98,4.98,0,0,1-2,3.978v2.522a.5.5,0,0,1-.5.5h-2a.5.5,0,0,1-.5-.5v-1.5H6v1.5a.5.5,0,0,1-.5.5h-2a.5.5,0,0,1-.5-.5V15.312a5,5,0,0,1-.978-.978H.5a.5.5,0,0,1-.5-.5v-4A.5.5,0,0,1,.5,9.334Zm4,2a.5.5,0,1,0-.5-.5A.5.5,0,0,0,4.5,11.334Z" transform="translate(-0.651 0.085)" fill="#007dc5"/>
      <g id="Group_8439" data-name="Group 8439" transform="translate(3.031)">
        <circle id="Ellipse_319" data-name="Ellipse 319" cx="5" cy="5" r="5" transform="translate(-0.68 -1)" fill="#007dc5" stroke="#fff" stroke-width="1"/>
        <text id="_" data-name="₹" transform="translate(2.321 6.822)" fill="#fff" font-size="8" font-family="ProximaNova-Medium, Proxima Nova" font-weight="500"><tspan x="0" y="0">₹</tspan></text>
      </g>
    </g>
  </g>
</svg>
