<svg _ngcontent-inq-c261="" xmlns="http://www.w3.org/2000/svg" width="24" height="24" viewBox="0 0 24 24"><g _ngcontent-inq-c261="" id="Calculator" transform="translate(-1303 -54)" class="ng-star-inserted"><rect _ngcontent-inq-c261="" id="Rectangle_6047" data-name="Rectangle 6047" width="24" height="24" transform="translate(1303 54)" fill="#fff" opacity="0"></rect><path _ngcontent-inq-c261="" id="Icon_ionic-ios-calculator" data-name="Icon ionic-ios-calculator" d="M20.286,3.375H9.132A1.537,1.537,0,0,0,7.594,4.913V21.837a1.537,1.537,0,0,0,1.538,1.538H20.286a1.537,1.537,0,0,0,1.538-1.538V4.913A1.537,1.537,0,0,0,20.286,3.375Zm-.577,13.077V20.3a1.151,1.151,0,0,1-1.154,1.154h0A1.151,1.151,0,0,1,17.4,20.3V16.452A1.151,1.151,0,0,1,18.555,15.3h0A1.151,1.151,0,0,1,19.709,16.452Zm0-3.846h0a1.151,1.151,0,0,1-1.154,1.154h0A1.151,1.151,0,0,1,17.4,12.606h0a1.151,1.151,0,0,1,1.154-1.154h0A1.151,1.151,0,0,1,19.709,12.606ZM15.863,20.3h0a1.151,1.151,0,0,1-1.154,1.154h0A1.151,1.151,0,0,1,13.555,20.3h0a1.151,1.151,0,0,1,1.154-1.154h0A1.151,1.151,0,0,1,15.863,20.3Zm0-3.846h0a1.151,1.151,0,0,1-1.154,1.154h0a1.151,1.151,0,0,1-1.154-1.154h0A1.151,1.151,0,0,1,14.709,15.3h0A1.151,1.151,0,0,1,15.863,16.452Zm0-3.846h0a1.151,1.151,0,0,1-1.154,1.154h0a1.151,1.151,0,0,1-1.154-1.154h0a1.151,1.151,0,0,1,1.154-1.154h0A1.151,1.151,0,0,1,15.863,12.606ZM12.017,20.3h0a1.151,1.151,0,0,1-1.154,1.154h0A1.151,1.151,0,0,1,9.709,20.3h0a1.151,1.151,0,0,1,1.154-1.154h0A1.151,1.151,0,0,1,12.017,20.3Zm0-3.846h0a1.151,1.151,0,0,1-1.154,1.154h0a1.151,1.151,0,0,1-1.154-1.154h0A1.151,1.151,0,0,1,10.863,15.3h0A1.151,1.151,0,0,1,12.017,16.452Zm0-3.846h0a1.151,1.151,0,0,1-1.154,1.154h0a1.151,1.151,0,0,1-1.154-1.154h0a1.151,1.151,0,0,1,1.154-1.154h0A1.151,1.151,0,0,1,12.017,12.606ZM9.709,8.76V6.452a.771.771,0,0,1,.769-.769H18.94a.771.771,0,0,1,.769.769V8.76a.771.771,0,0,1-.769.769H10.478A.771.771,0,0,1,9.709,8.76Z" transform="translate(1300.406 52.625)" fill="#fff"></path></g></svg>