<svg width="20" height="22" viewBox="0 0 20 22" fill="none" xmlns="http://www.w3.org/2000/svg">
<path d="M1 4.75C0.783333 4.75 0.6 4.68333 0.45 4.55C0.316667 4.4 0.25 4.21667 0.25 4V1.125C0.25 0.874999 0.333333 0.666666 0.5 0.499999C0.666667 0.333333 0.875 0.25 1.125 0.25H4C4.21667 0.25 4.39167 0.324999 4.525 0.474999C4.675 0.608332 4.75 0.783332 4.75 1C4.75 1.21667 4.675 1.4 4.525 1.55C4.39167 1.68333 4.21667 1.75 4 1.75H1.75V4C1.75 4.21667 1.675 4.4 1.525 4.55C1.39167 4.68333 1.21667 4.75 1 4.75ZM19 4.75C18.7833 4.75 18.6 4.68333 18.45 4.55C18.3167 4.4 18.25 4.21667 18.25 4V1.75H16C15.7833 1.75 15.6 1.68333 15.45 1.55C15.3167 1.4 15.25 1.21667 15.25 1C15.25 0.783332 15.3167 0.608332 15.45 0.474999C15.6 0.324999 15.7833 0.25 16 0.25H18.875C19.125 0.25 19.3333 0.333333 19.5 0.499999C19.6667 0.666666 19.75 0.874999 19.75 1.125V4C19.75 4.21667 19.675 4.4 19.525 4.55C19.3917 4.68333 19.2167 4.75 19 4.75ZM1.125 21.75C0.875 21.75 0.666667 21.6667 0.5 21.5C0.333333 21.3333 0.25 21.125 0.25 20.875V18C0.25 17.7833 0.316667 17.6083 0.45 17.475C0.6 17.325 0.783333 17.25 1 17.25C1.21667 17.25 1.39167 17.325 1.525 17.475C1.675 17.6083 1.75 17.7833 1.75 18V20.25H4C4.21667 20.25 4.39167 20.325 4.525 20.475C4.675 20.6083 4.75 20.7833 4.75 21C4.75 21.2167 4.675 21.4 4.525 21.55C4.39167 21.6833 4.21667 21.75 4 21.75H1.125ZM16 21.75C15.7833 21.75 15.6 21.6833 15.45 21.55C15.3167 21.4 15.25 21.2167 15.25 21C15.25 20.7833 15.3167 20.6083 15.45 20.475C15.6 20.325 15.7833 20.25 16 20.25H18.25V18C18.25 17.7833 18.3167 17.6083 18.45 17.475C18.6 17.325 18.7833 17.25 19 17.25C19.2167 17.25 19.3917 17.325 19.525 17.475C19.675 17.6083 19.75 17.7833 19.75 18V20.875C19.75 21.125 19.6667 21.3333 19.5 21.5C19.3333 21.6667 19.125 21.75 18.875 21.75H16ZM4.75 16.95C4.75 17.0167 4.78333 17.0833 4.85 17.15C4.91667 17.2167 4.98333 17.25 5.05 17.25H14.95C15.0167 17.25 15.0833 17.2167 15.15 17.15C15.2167 17.0833 15.25 17.0167 15.25 16.95V5.05C15.25 4.98333 15.2167 4.91667 15.15 4.85C15.0833 4.78333 15.0167 4.75 14.95 4.75H5.05C4.98333 4.75 4.91667 4.78333 4.85 4.85C4.78333 4.91667 4.75 4.98333 4.75 5.05V16.95ZM5.05 18.75C4.55 18.75 4.125 18.575 3.775 18.225C3.425 17.875 3.25 17.45 3.25 16.95V5.05C3.25 4.55 3.425 4.125 3.775 3.775C4.125 3.425 4.55 3.25 5.05 3.25H14.95C15.45 3.25 15.875 3.425 16.225 3.775C16.575 4.125 16.75 4.55 16.75 5.05V16.95C16.75 17.45 16.575 17.875 16.225 18.225C15.875 18.575 15.45 18.75 14.95 18.75H5.05ZM8 8.75H12C12.2167 8.75 12.3917 8.68333 12.525 8.55C12.675 8.4 12.75 8.21667 12.75 8C12.75 7.78333 12.675 7.60833 12.525 7.475C12.3917 7.325 12.2167 7.25 12 7.25H8C7.78333 7.25 7.6 7.325 7.45 7.475C7.31667 7.60833 7.25 7.78333 7.25 8C7.25 8.21667 7.31667 8.4 7.45 8.55C7.6 8.68333 7.78333 8.75 8 8.75ZM8 11.75H12C12.2167 11.75 12.3917 11.6833 12.525 11.55C12.675 11.4 12.75 11.2167 12.75 11C12.75 10.7833 12.675 10.6083 12.525 10.475C12.3917 10.325 12.2167 10.25 12 10.25H8C7.78333 10.25 7.6 10.325 7.45 10.475C7.31667 10.6083 7.25 10.7833 7.25 11C7.25 11.2167 7.31667 11.4 7.45 11.55C7.6 11.6833 7.78333 11.75 8 11.75ZM8 14.75H12C12.2167 14.75 12.3917 14.6833 12.525 14.55C12.675 14.4 12.75 14.2167 12.75 14C12.75 13.7833 12.675 13.6083 12.525 13.475C12.3917 13.325 12.2167 13.25 12 13.25H8C7.78333 13.25 7.6 13.325 7.45 13.475C7.31667 13.6083 7.25 13.7833 7.25 14C7.25 14.2167 7.31667 14.4 7.45 14.55C7.6 14.6833 7.78333 14.75 8 14.75ZM4.75 16.95V5.05C4.75 4.98333 4.75 4.91667 4.75 4.85C4.75 4.78333 4.75 4.75 4.75 4.75C4.75 4.75 4.75 4.78333 4.75 4.85C4.75 4.91667 4.75 4.98333 4.75 5.05V16.95C4.75 17.0167 4.75 17.0833 4.75 17.15C4.75 17.2167 4.75 17.25 4.75 17.25C4.75 17.25 4.75 17.2167 4.75 17.15C4.75 17.0833 4.75 17.0167 4.75 16.95Z" fill="#1565C0"/>
</svg>
