<svg width="18" height="18" viewBox="0 0 18 18" fill="none" xmlns="http://www.w3.org/2000/svg">
<path d="M15.85 5.65L12.475 2.3L13.8 0.999999C14.0833 0.716665 14.4333 0.574998 14.85 0.574998C15.2833 0.574998 15.6417 0.716665 15.925 0.999999L17.15 2.225C17.4333 2.525 17.5833 2.88333 17.6 3.3C17.6167 3.7 17.475 4.04167 17.175 4.325L15.85 5.65ZM1.55 17.5C1.3 17.5 1.08333 17.4167 0.9 17.25C0.733333 17.0667 0.65 16.85 0.65 16.6V14.5C0.65 14.3833 0.666667 14.275 0.7 14.175C0.75 14.0583 0.825 13.95 0.925 13.85L11.4 3.375L14.775 6.75L4.3 17.225C4.2 17.325 4.09167 17.4 3.975 17.45C3.875 17.4833 3.76667 17.5 3.65 17.5H1.55Z" fill="#1565C0"/>
</svg>
