<svg xmlns="http://www.w3.org/2000/svg" width="24" height="24" viewBox="0 0 24 24">
  <g id="Group_19299" data-name="Group 19299" transform="translate(-0.5)">
    <rect id="Rectangle_22" data-name="Rectangle 22" width="24" height="24" transform="translate(0.5)" fill="#007dc5" opacity="0"/>
    <path id="Icon_awesome-edit" data-name="Icon awesome-edit" d="M11.183,2.315l2.506,2.506a.272.272,0,0,1,0,.383L7.622,11.271l-2.578.286a.54.54,0,0,1-.6-.6l.286-2.578L10.8,2.315A.272.272,0,0,1,11.183,2.315Zm4.5-.636L14.328.324a1.086,1.086,0,0,0-1.533,0l-.983.983a.272.272,0,0,0,0,.383L14.317,4.2a.272.272,0,0,0,.383,0l.983-.983a1.086,1.086,0,0,0,0-1.533ZM10.667,9.621v2.828H1.778V3.56H8.161a.342.342,0,0,0,.236-.1L9.508,2.351a.333.333,0,0,0-.236-.569H1.333A1.334,1.334,0,0,0,0,3.115v9.778a1.334,1.334,0,0,0,1.333,1.333h9.778a1.334,1.334,0,0,0,1.333-1.333V8.51a.334.334,0,0,0-.569-.236L10.764,9.385A.342.342,0,0,0,10.667,9.621Z" transform="translate(4.5 4.993)" fill="#007dc5"/>
  </g>
</svg>
