<svg width="16" height="16" viewBox="0 0 16 16" fill="none" xmlns="http://www.w3.org/2000/svg">
<path d="M8 11.625C7.78333 11.625 7.6 11.55 7.45 11.4C7.31667 11.25 7.25 11.075 7.25 10.875V3.225L5.325 5.15C5.175 5.28333 5 5.35833 4.8 5.375C4.6 5.375 4.41667 5.29167 4.25 5.125C4.1 4.975 4.025 4.8 4.025 4.6C4.04167 4.38333 4.11667 4.20833 4.25 4.075L7.375 0.949999C7.45833 0.866666 7.55 0.808332 7.65 0.774999C7.76667 0.724998 7.88333 0.699998 8 0.699998C8.11667 0.699998 8.225 0.724998 8.325 0.774999C8.44167 0.808332 8.54167 0.866666 8.625 0.949999L11.75 4.075C11.9 4.225 11.9667 4.4 11.95 4.6C11.95 4.8 11.8833 4.975 11.75 5.125C11.5833 5.275 11.4 5.35833 11.2 5.375C11 5.375 10.825 5.3 10.675 5.15L8.75 3.225V10.875C8.75 11.075 8.675 11.25 8.525 11.4C8.39167 11.55 8.21667 11.625 8 11.625ZM2.3 15.5C1.8 15.5 1.375 15.325 1.025 14.975C0.675 14.625 0.5 14.2 0.5 13.7V11.75C0.5 11.5333 0.566667 11.3583 0.7 11.225C0.85 11.075 1.03333 11 1.25 11C1.46667 11 1.64167 11.075 1.775 11.225C1.925 11.3583 2 11.5333 2 11.75V13.7C2 13.7667 2.03333 13.8333 2.1 13.9C2.16667 13.9667 2.23333 14 2.3 14H13.7C13.7667 14 13.8333 13.9667 13.9 13.9C13.9667 13.8333 14 13.7667 14 13.7V11.75C14 11.5333 14.0667 11.3583 14.2 11.225C14.35 11.075 14.5333 11 14.75 11C14.9667 11 15.1417 11.075 15.275 11.225C15.425 11.3583 15.5 11.5333 15.5 11.75V13.7C15.5 14.2 15.325 14.625 14.975 14.975C14.625 15.325 14.2 15.5 13.7 15.5H2.3Z" fill="#1565C0"/>
</svg>
