<svg width="20" height="17" viewBox="0 0 20 17" fill="none" xmlns="http://www.w3.org/2000/svg">
<path d="M8.775 16.25L7.35 14.925C5.56667 13.3083 3.975 11.725 2.575 10.175C1.19167 8.60833 0.5 6.93333 0.5 5.15C0.5 3.73333 0.975 2.55 1.925 1.6C2.89167 0.633332 4.08333 0.149999 5.5 0.149999C6.3 0.149999 7.09167 0.341666 7.875 0.724999C8.675 1.09167 9.38333 1.69167 10 2.525C10.6167 1.69167 11.3167 1.09167 12.1 0.724999C12.9 0.341666 13.7 0.149999 14.5 0.149999C15.9167 0.149999 17.1 0.633332 18.05 1.6C19.0167 2.55 19.5 3.73333 19.5 5.15C19.5 6.95 18.7917 8.64167 17.375 10.225C15.9583 11.7917 14.375 13.3667 12.625 14.95L11.225 16.225C10.875 16.5417 10.4667 16.7 10 16.7C9.53333 16.7 9.125 16.55 8.775 16.25Z" fill="#FB8C00"/>
</svg>
