<svg xmlns="http://www.w3.org/2000/svg" width="32" height="32" viewBox="0 0 32 32">
  <g id="Group_17323" data-name="Group 17323" transform="translate(-687 -187)">
    <circle id="Ellipse_5515" data-name="Ellipse 5515" cx="16" cy="16" r="16" transform="translate(687 187)" fill="#f9e9dc"/>
    <g id="Group_19015" data-name="Group 19015" transform="translate(-372.078 -335.633)">
      <path id="Path_24193" data-name="Path 24193" d="M109.573,244.139a10.871,10.871,0,0,0-1.163-1.5,12.525,12.525,0,0,1-1.11-1.357.621.621,0,0,0-.863-.141c-.335.194-.564.652-.211,1.321A7.55,7.55,0,0,0,107.3,243.8l.088.088a.251.251,0,0,1-.053.388.27.27,0,0,1-.335-.053c-.018-.035-.053-.053-.07-.088a11.135,11.135,0,0,1-.916-1.075c-.088-.141-.176-.264-.247-.388a1.659,1.659,0,0,1-.141-1.357,14.505,14.505,0,0,1-.564-1.339.773.773,0,0,0-1.515.3c.053,1,.405,4.352,1.374,5.48a11.44,11.44,0,0,0,2.114,1.832.517.517,0,0,1,.211.405v.67a.361.361,0,0,0,.37.37H110a.372.372,0,0,0,.37-.37c-.018-.405-.035-1.092-.07-1.674a7.434,7.434,0,0,0-.723-2.854Z" transform="translate(963.787 300.002)" fill="#f58220"/>
      <path id="Path_24194" data-name="Path 24194" d="M384.981,240.717a14.414,14.414,0,0,1-.564,1.339,1.658,1.658,0,0,1-.141,1.357,3.448,3.448,0,0,1-.247.388c-.229.317-.564.67-.916,1.075-.018.035-.053.053-.07.088a.27.27,0,0,1-.335.053.253.253,0,0,1-.053-.388l.088-.088a6.821,6.821,0,0,0,1.075-1.339c.352-.67.123-1.128-.211-1.321a.64.64,0,0,0-.863.141,14.473,14.473,0,0,1-1.11,1.357,9.653,9.653,0,0,0-1.163,1.5,7.325,7.325,0,0,0-.722,2.837c-.035.6-.053,1.269-.07,1.674a.361.361,0,0,0,.37.37h2.379a.361.361,0,0,0,.37-.37v-.67a.472.472,0,0,1,.211-.405,11.326,11.326,0,0,0,2.1-1.815c.969-1.128,1.321-4.493,1.374-5.48a.764.764,0,0,0-1.5-.3Z" transform="translate(696.343 299.284)" fill="#f58220"/>
      <g id="couple" transform="translate(1068.625 532.932)">
        <ellipse id="Ellipse_5526" data-name="Ellipse 5526" cx="1.133" cy="1.133" rx="1.133" ry="1.133" transform="translate(2.35 -2.498) rotate(-76.891)" fill="#f58220"/>
        <path id="Path_24219" data-name="Path 24219" d="M12.791,44.169a.844.844,0,0,0-.431-.736,2.97,2.97,0,0,0-1.144-1.9,2.932,2.932,0,0,0-1.039-.507.384.384,0,0,0-.18,0l-.026,0a1.138,1.138,0,0,1-1.742-.025H8.223a2.417,2.417,0,0,0-1.69,1.032q-.033.048-.064.1a3.784,3.784,0,0,0-.614-1.079l0,0a3,3,0,0,0-.21-.227,2.148,2.148,0,0,0-.738-.5.387.387,0,0,0-.084-.018.388.388,0,0,0-.138-.025H4.637a1.231,1.231,0,0,1-1.852,0H2.737a.387.387,0,0,0-.137.025,2.265,2.265,0,0,0-.931.384,2.354,2.354,0,0,0-.746.879,3.3,3.3,0,0,0-.31,1.054A.94.94,0,0,0,0,43.507v5.476a.241.241,0,1,0,.482,0V43.507a.457.457,0,0,1,.1-.284.386.386,0,0,0,.37.312H.961a.386.386,0,0,0,.368-.27.457.457,0,0,1,.07.243h0a.241.241,0,1,0,.482,0,.941.941,0,0,0-.5-.829,2.489,2.489,0,0,1,.228-.76,1.531,1.531,0,0,1,.734-.729v2.93s0,0,0,.006a25.1,25.1,0,0,0-.31,4.548.627.627,0,0,0,1.254,0,29.689,29.689,0,0,1,.184-3.639c.027-.214.053-.387.077-.525h.314a25.439,25.439,0,0,1,.261,4.165.627.627,0,0,0,1.254,0,25.1,25.1,0,0,0-.31-4.547s0,0,0-.007V41.349l0,0a2.225,2.225,0,0,1,.183.2h0a3.76,3.76,0,0,1,.754,1.959.384.384,0,0,0,.031.108c0,.011,0,.021,0,.033a.387.387,0,0,0,.368.4h.018a.386.386,0,0,0,.384-.349c0-.006,0-.013,0-.019a3.136,3.136,0,0,1,.045-.409A2.131,2.131,0,0,1,7.09,42.6a1.617,1.617,0,0,1,.707-.67,26.005,26.005,0,0,0-.561,4.056.989.989,0,0,0,.107.542A3.187,3.187,0,0,0,9.109,47a3.188,3.188,0,0,0,1.766-.475.99.99,0,0,0,.107-.542,25.891,25.891,0,0,0-.557-4.04,2.291,2.291,0,0,1,.364.234,2.155,2.155,0,0,1,.778,1.234.844.844,0,0,0-.465.753.217.217,0,0,0,.433,0h0a.41.41,0,0,1,.114-.283.386.386,0,0,0,.368.271l.037,0a.385.385,0,0,0,.269-.15.411.411,0,0,1,.034.164v4.914a.216.216,0,1,0,.433,0Z" transform="translate(0 -42.819)" fill="#f58220"/>
        <path id="Path_24220" data-name="Path 24220" d="M159.379,18.828a.555.555,0,1,0,1.11,0c0-.617.013-1.155.033-1.622a4.714,4.714,0,0,1-1.1-.227C159.4,17.5,159.379,18.117,159.379,18.828Zm1.731,0a.555.555,0,1,0,1.11,0c0-.711-.016-1.324-.042-1.849a4.717,4.717,0,0,1-1.1.227C161.1,17.673,161.11,18.211,161.11,18.828Zm-.052-9.573a1.135,1.135,0,0,1,.316.126.576.576,0,0,0-1.15,0,1.139,1.139,0,0,1,.833-.125Z" transform="translate(-151.69 -12.899)" fill="#f58220"/>
        <circle id="Ellipse_5527" data-name="Ellipse 5527" cx="1.043" cy="1.043" r="1.043" transform="translate(7.858 -1.755) rotate(-76.891)" fill="#f58220"/>
      </g>
    </g>
  </g>
</svg>
