<svg xmlns="http://www.w3.org/2000/svg" width="32" height="32" viewBox="0 0 32 32">
  <g id="Group_17323" data-name="Group 17323" transform="translate(-687 -187)">
    <circle id="Ellipse_5515" data-name="Ellipse 5515" cx="16" cy="16" r="16" transform="translate(687 187)" fill="#f9e9dc"/>
    <g id="Group_19023" data-name="Group 19023" transform="translate(4594.205 -3125.305)">
      <g id="Group_19022" data-name="Group 19022" transform="translate(-3901.205 3330.746)">
        <path id="Path_23752" data-name="Path 23752" d="M236.851,340.031a24.62,24.62,0,0,1-2.4.583,2.756,2.756,0,0,1-1.985,1.165,4.434,4.434,0,0,1-.777.043,20.935,20.935,0,0,1-2.374-.194c-.065,0-.129-.022-.216-.022a.428.428,0,0,1-.388-.453.437.437,0,0,1,.475-.41c.065,0,.129.022.216.022a14.581,14.581,0,0,0,2.934.129c1.273-.194,1.661-.971,1.575-1.618a1.037,1.037,0,0,0-1.057-1.014,23.234,23.234,0,0,1-2.934-.151A15.154,15.154,0,0,0,226.71,338a11.045,11.045,0,0,0-2.136.712c-.194.086-.388.173-.583.237v5.61a26.293,26.293,0,0,0,5.071,1.381c2.525.194,7.444-2.654,8.868-3.582a1.285,1.285,0,0,0-1.079-2.33Z" transform="translate(-219.072 -337.949)" fill="#f58220"/>
        <path id="Path_23753" data-name="Path 23753" d="M99.794,338.24H96.9a.58.58,0,0,0-.583.583v6.387a.58.58,0,0,0,.583.583h2.913a.58.58,0,0,0,.583-.583v-6.387a.613.613,0,0,0-.6-.583Z" transform="translate(-96.32 -338.229)" fill="#f58220"/>
      </g>
      <g id="noun-market-2711683" transform="translate(-3896.78 3318.305)">
        <path id="Path_23885" data-name="Path 23885" d="M110.93,259.229a2.028,2.028,0,0,1-1.342-.508,2.035,2.035,0,0,1-1.331.508,1.985,1.985,0,0,1-1.342-.508,2.087,2.087,0,0,1-1.342.508,1.985,1.985,0,0,1-1.342-.508,2.087,2.087,0,0,1-1.342.508,2,2,0,0,1-.632-.1,1.282,1.282,0,0,1-.338-.147v4.952a.424.424,0,0,0,.417.417h5.211v-3.632a.137.137,0,0,1,.135-.135h2.166a.137.137,0,0,1,.135.135v3.632h1.489a.424.424,0,0,0,.417-.417V258.98a1.139,1.139,0,0,1-.338.147,1.885,1.885,0,0,1-.62.1Zm-4.659,2.809a.137.137,0,0,1-.135.135h-2.154a.137.137,0,0,1-.135-.135v-1.32a.137.137,0,0,1,.135-.135h2.143a.137.137,0,0,1,.135.135v1.32Z" transform="translate(-101.556 -253.181)" fill="#f58220"/>
        <path id="Path_23886" data-name="Path 23886" d="M94.455,24.569,93,22.184a.681.681,0,0,0-.564-.343H86.288a.667.667,0,0,0-.564.343l-1.466,2.385A1.867,1.867,0,0,0,84,25.53a1.619,1.619,0,0,0,.914,1.568,1.265,1.265,0,0,0,1.545-.632.244.244,0,0,1,.44,0,1.315,1.315,0,0,0,1.117.712,1.276,1.276,0,0,0,1.117-.712.244.244,0,0,1,.44,0,1.315,1.315,0,0,0,1.117.712,1.276,1.276,0,0,0,1.117-.712.244.244,0,0,1,.44,0,1.255,1.255,0,0,0,1.545.632A1.632,1.632,0,0,0,94.7,25.53a1.786,1.786,0,0,0-.248-.962Z" transform="translate(-83.998 -21.841)" fill="#f58220"/>
        <g id="Group_17827" data-name="Group 17827" transform="translate(4.104 1.021)">
          <path id="Path_4504" data-name="Path 4504" d="M356.155,349.089h-.612a.243.243,0,1,1,0-.486h.612a.508.508,0,1,0,0-1.017h-.437a.243.243,0,0,1,0-.486h.437a.994.994,0,1,1,0,1.989Z" transform="translate(-355.289 -347.1)" fill="#fff"/>
          <path id="Path_4505" data-name="Path 4505" d="M357,347.686h-1.772a.243.243,0,1,1,0-.486H357a.243.243,0,0,1,0,.486Zm0,.738h-1.772a.243.243,0,1,1,0-.486H357a.243.243,0,0,1,0,.486Zm-.44,2.066a.252.252,0,0,1-.168-.068l-1.344-1.305a.243.243,0,0,1,.334-.353l0,0,1.344,1.305a.244.244,0,0,1,.006.343A.24.24,0,0,1,356.56,350.491Z" transform="translate(-354.972 -347.197)" fill="#fff"/>
        </g>
      </g>
    </g>
  </g>
</svg>
