<svg xmlns="http://www.w3.org/2000/svg" width="32" height="32" viewBox="0 0 32 32">
  <g id="Group_17323" data-name="Group 17323" transform="translate(-687 -187)">
    <circle id="Ellipse_5515" data-name="Ellipse 5515" cx="16" cy="16" r="16" transform="translate(687 187)" fill="#f9e9dc"/>
    <g id="Group_19014" data-name="Group 19014" transform="translate(-95.947 -563.846)">
      <path id="Path_24203" data-name="Path 24203" d="M102.636,137.149l-.511-2.3a1.11,1.11,0,0,0-.943-.844l-2.946-.334-1.807-2.337a3.648,3.648,0,0,0-2.867-1.414H90.086a3.41,3.41,0,0,0-2.907,1.611l-1.453,2.317A4.942,4.942,0,0,0,84,137.581a.7.7,0,0,0,.687.687h1.335a2.344,2.344,0,0,0,4.674,0h5.263a2.344,2.344,0,0,0,4.674,0h1.1a.93.93,0,0,0,.9-1.12Zm-14.278,2.062a1.12,1.12,0,1,1,0-2.239,1.12,1.12,0,0,1,0,2.239Zm2.691-5.676H87.867l.687-1.1a1.787,1.787,0,0,1,1.512-.844h.982Zm1.65-1.964h.864a2.031,2.031,0,0,1,1.571.766l.9,1.178H92.7Zm5.6,7.64a1.12,1.12,0,1,1,0-2.239,1.132,1.132,0,0,1,1.12,1.12A1.119,1.119,0,0,1,98.3,139.211Z" transform="translate(705.949 636.443)" fill="#f58220"/>
      <g id="Group_17886" data-name="Group 17886" transform="translate(794 756.846)">
        <path id="Path_4494" data-name="Path 4494" d="M281.2,215c0,2.584-2.268,3.922-4.6,3.922a4.92,4.92,0,0,1-3.767-1.555,3.322,3.322,0,0,1-.419-.625A3.709,3.709,0,0,1,272,215a3.768,3.768,0,0,1,.158-1.029,7.411,7.411,0,0,1,2.319-3.514.789.789,0,0,0,.182-1.08l-.97-1.421a.452.452,0,0,1,.119-.629.472.472,0,0,1,.237-.079h.04a.435.435,0,0,1,.261.071l.617.4a.748.748,0,0,0,.93-.1l.289-.289a.592.592,0,0,1,.835,0h0l.293.293a.748.748,0,0,0,.926.1l.673-.419a.428.428,0,0,1,.237-.071h.032a.455.455,0,0,1,.423.483.431.431,0,0,1-.079.226l-.981,1.44a.792.792,0,0,0,.182,1.08A6.868,6.868,0,0,1,281.2,215Z" transform="translate(-272 -207.15)" fill="#f58220" stroke="#f9e9dc" stroke-width="1"/>
        <g id="Group_8646" data-name="Group 8646" transform="translate(3.284 5.538)">
          <path id="Path_4504" data-name="Path 4504" d="M356.345,349.53H355.6a.3.3,0,0,1,0-.594h.748a.621.621,0,1,0,0-1.243h-.534a.3.3,0,1,1,0-.594h.534a1.215,1.215,0,0,1,0,2.43Z" transform="translate(-355.287 -347.1)" fill="#fff"/>
          <path id="Path_4505" data-name="Path 4505" d="M357.451,347.794h-2.165a.3.3,0,0,1,0-.594h2.165a.3.3,0,0,1,0,.594Zm0,.9h-2.165a.3.3,0,1,1,0-.594h2.165a.3.3,0,0,1,0,.594Zm-.538,2.525a.308.308,0,0,1-.206-.083l-1.642-1.595a.3.3,0,0,1,.408-.431l0,0,1.642,1.595a.3.3,0,0,1,.008.419A.293.293,0,0,1,356.913,351.221Z" transform="translate(-354.972 -347.196)" fill="#fff"/>
        </g>
      </g>
    </g>
  </g>
</svg>
