<svg xmlns="http://www.w3.org/2000/svg" width="24" height="24" viewBox="0 0 24 24">
  <g id="Group_17329" data-name="Group 17329" transform="translate(-427 -236)">
    <rect id="Rectangle_6003" data-name="Rectangle 6003" width="24" height="24" transform="translate(427 236)" fill="#565656" opacity="0"/>
    <g id="CC" transform="translate(426 225.471)">
      <path id="Path_24145" data-name="Path 24145" d="M32.415,34.4H21.3a1.11,1.11,0,0,0-1.1,1.1v1.211a.2.2,0,0,0,.2.2H33.323a.2.2,0,0,0,.2-.2V35.5A1.1,1.1,0,0,0,32.415,34.4Zm.908,3.615H20.4a.2.2,0,0,0-.2.2V42a1.11,1.11,0,0,0,1.1,1.1H32.415a1.11,1.11,0,0,0,1.1-1.1V38.211A.2.2,0,0,0,33.323,38.015Zm-9.509,3.134a.115.115,0,0,1-.107.107H22.034a.115.115,0,0,1-.107-.107V39.475a.115.115,0,0,1,.107-.107h1.674a.115.115,0,0,1,.107.107Z" transform="translate(-12.519 -14.649)" fill="#565656"/>
      <path id="Path_24146" data-name="Path 24146" d="M6.1,25.129h.659A.122.122,0,0,0,6.887,25V20.553a1.634,1.634,0,0,1,1.638-1.638h9.669a.122.122,0,0,0,.125-.125V17.7a1.11,1.11,0,0,0-1.1-1.1H6.638A1.634,1.634,0,0,0,5,18.238v5.769A1.113,1.113,0,0,0,6.1,25.129Z" fill="#565656"/>
    </g>
  </g>
</svg>
