<svg xmlns="http://www.w3.org/2000/svg" width="32" height="32" viewBox="0 0 32 32">
  <g id="Group_17323" data-name="Group 17323" transform="translate(-687 -187)">
    <circle id="Ellipse_5515" data-name="Ellipse 5515" cx="16" cy="16" r="16" transform="translate(687 187)" fill="#f9e9dc"/>
    <g id="Group_17322" data-name="Group 17322" transform="translate(-12.157 34.915)">
      <g id="Group_17319" data-name="Group 17319" transform="translate(14022.157 110.775)">
        <g id="Group_8870" data-name="Group 8870" transform="translate(-13310.435 46.99)">
          <g id="Ellipse_319" data-name="Ellipse 319" transform="translate(-1 1.181)" fill="#f58220" stroke="#f58220" stroke-width="1">
            <ellipse cx="4.277" cy="4.297" rx="4.277" ry="4.297" stroke="none"/>
            <ellipse cx="4.277" cy="4.297" rx="4.777" ry="4.797" fill="none"/>
          </g>
          <text id="_" data-name="₹" transform="translate(0.277 8.32)" fill="#fff" font-size="9" font-family="SegoeUI-Semibold, Segoe UI" font-weight="600"><tspan x="0" y="0">₹</tspan></text>
        </g>
        <path id="Path_23195" data-name="Path 23195" d="M88.842,23.593c-.012-2.336-.11-3.589-.786-4.7-2.321-.2-4.863-2.95-4.58-5.212h.012v-.012c2.235-.271,4.985,2.262,5.194,4.585a5.021,5.021,0,0,1,.626,1.291,4.56,4.56,0,0,1,.565-1.119c.086-2.36,2.922-5.04,5.219-4.745V13.7H95.1c.27,2.213-2.2,4.917-4.494,5.187-.761,1.119-.872,2.36-.9,4.708,3.021.074,5.391.824,5.391,1.746H83.439c.012-.922,2.394-1.684,5.4-1.746Z" transform="translate(-13396.439 43.111)" fill="#f58220"/>
      </g>
    </g>
  </g>
</svg>
