<svg xmlns="http://www.w3.org/2000/svg" width="24" height="24" viewBox="0 0 24 24">
  <g id="Group_17329" data-name="Group 17329" transform="translate(-427 -236)">
    <rect id="Rectangle_6003" data-name="Rectangle 6003" width="24" height="24" transform="translate(427 236)" fill="#565656" opacity="0"/>
    <g id="piggy-bank" transform="translate(430.023 230.897)">
      <path id="Path_24105" data-name="Path 24105" d="M17.791,25.6a.391.391,0,1,0,.391.391A.386.386,0,0,0,17.791,25.6Z" transform="translate(-12.445 -10.482)" fill="#565656"/>
      <path id="Path_24106" data-name="Path 24106" d="M16.177,15.944a.717.717,0,0,0-.242.048,3.264,3.264,0,0,1,.388-.921.25.25,0,0,0-.436-.242,3.307,3.307,0,0,0-.509,1.914h0v.024h0a.576.576,0,0,0,.073.291h-.727V17.01c0-2.5-2.738-4.556-6.131-4.556a8.312,8.312,0,0,0-1.357.121A3.782,3.782,0,0,0,6,11.921a3.56,3.56,0,0,0-2.4.121.544.544,0,0,0-.242.824,3.246,3.246,0,0,0,.921.9,4.425,4.425,0,0,0-1.7,2.4H1.54a.566.566,0,0,0-.557.63A2.792,2.792,0,0,0,3.139,19.07a4.241,4.241,0,0,0,.775.848L3.6,21.566a.685.685,0,0,0,.145.606.725.725,0,0,0,.557.267h1.26a.724.724,0,0,0,.7-.582l.121-.63a7.969,7.969,0,0,0,3.78.121l-.048.194a.685.685,0,0,0,.145.606.725.725,0,0,0,.557.267H12.13a.724.724,0,0,0,.7-.582l.388-1.939a4.034,4.034,0,0,0,1.43-2.423h1.527a.807.807,0,0,0,.8-.8A.8.8,0,0,0,16.177,15.944ZM5.344,16.38a.872.872,0,1,1,.872-.872A.869.869,0,0,1,5.344,16.38ZM10.966,14.9a5.175,5.175,0,0,0-1.478-.557.247.247,0,1,1,.1-.485,5.756,5.756,0,0,1,1.6.606A.244.244,0,1,1,10.966,14.9Zm2.011,2.108a.246.246,0,0,1-.315-.17,3,3,0,0,0-.679-1.163.241.241,0,1,1,.364-.315,3.385,3.385,0,0,1,.775,1.333A.233.233,0,0,1,12.978,17.01Zm3.2.073a.315.315,0,1,1,.315-.315A.321.321,0,0,1,16.177,17.083Z" transform="translate(0 0)" fill="#565656"/>
    </g>
  </g>
</svg>
