<svg xmlns="http://www.w3.org/2000/svg" width="32" height="32" viewBox="0 0 32 32">
  <g id="Group_17323" data-name="Group 17323" transform="translate(-687 -187)">
    <circle id="Ellipse_5515" data-name="Ellipse 5515" cx="16" cy="16" r="16" transform="translate(687 187)" fill="#f9e9dc"/>
    <g id="noun-deal-3842590" transform="translate(609.21 160.405)">
      <path id="Path_23996" data-name="Path 23996" d="M88.685,217.556l-1.2-.776a.4.4,0,0,0-.21-.063H87.2a.374.374,0,0,0-.252.189l-3.083,4.782A.414.414,0,0,0,83.8,222a.334.334,0,0,0,.189.252l1.2.776a.414.414,0,0,0,.315.063.334.334,0,0,0,.252-.189l3.062-4.782a.4.4,0,0,0-.126-.566Zm-3.041,4.363a.593.593,0,0,1-.315.231c-.042,0-.063.021-.1.021a.422.422,0,0,1-.273-.084.5.5,0,0,1,.545-.839.593.593,0,0,1,.231.315.457.457,0,0,1-.084.357Z" transform="translate(0 -176.263)" fill="#f58220"/>
      <path id="Path_23997" data-name="Path 23997" d="M485.427,221.692l-3.062-4.782a.451.451,0,0,0-.252-.189h-.084a.478.478,0,0,0-.231.063l-1.2.776a.41.41,0,0,0-.126.566l3.062,4.782a.41.41,0,0,0,.566.126l1.2-.776a.406.406,0,0,0,.126-.566Zm-1.091.377a.594.594,0,0,1-.273.084.19.19,0,0,1-.1-.021.439.439,0,0,1-.315-.231.477.477,0,0,1-.063-.377.439.439,0,0,1,.231-.315.5.5,0,0,1,.692.147A.551.551,0,0,1,484.336,222.07Z" transform="translate(-381.765 -176.267)" fill="#f58220"/>
      <path id="Path_23998" data-name="Path 23998" d="M171.183,270.6l-.378-.461a14.765,14.765,0,0,0-3.65-2.769l-.315.5a1.075,1.075,0,0,1-1.2.461H165.6a1.1,1.1,0,0,1-.734-1.279,4.251,4.251,0,0,1,.524-1.321l-.5-.063a1.95,1.95,0,0,0-1.091.189l-.315.168a1.491,1.491,0,0,1-1.3.063l-.629-.273-2.517,3.943.9.608.482-.482a1.068,1.068,0,0,1,.734-.315,1.052,1.052,0,0,1,1.028.923,1.019,1.019,0,0,1,.965.273,1.048,1.048,0,0,1,.294.734.649.649,0,0,1-.021.21.962.962,0,0,1,.587.273h.021a1.02,1.02,0,0,1,.273.965.982.982,0,0,1,.608.294v.021a1.048,1.048,0,0,1,.294.734,1.078,1.078,0,0,1-.21.629l.5.629a.69.69,0,0,0,.965-.021.723.723,0,0,0,.21-.482.651.651,0,0,0-.189-.461l-.21-.21a.3.3,0,1,1,.419-.419l.4.4a.7.7,0,0,0,.986,0l.021-.021a.711.711,0,0,0,0-.965l-.441-.441a.3.3,0,0,1,0-.42.319.319,0,0,1,.419,0l.629.629a.711.711,0,0,0,.965,0,.723.723,0,0,0,.21-.482.739.739,0,0,0-.189-.482l-.692-.65a.3.3,0,0,1,0-.42.319.319,0,0,1,.419,0l.818.818a.762.762,0,0,0,.545.231h.021a.682.682,0,0,0,.482-.21.651.651,0,0,0,.189-.461,1.048,1.048,0,0,0-.042-.252,2.8,2.8,0,0,1-.251-.335Z" transform="translate(-72.429 -223.375)" fill="#f58220"/>
      <path id="Path_23999" data-name="Path 23999" d="M332.244,256.558l-.944-.315a1.055,1.055,0,0,0-1.2.4l-.042.063a3.815,3.815,0,0,0-.566,1.342.532.532,0,0,0,.357.608.479.479,0,0,0,.545-.21l.461-.713a.3.3,0,0,1,.252-.126.267.267,0,0,1,.126.021A13.6,13.6,0,0,1,336,261.55l1.468-.839-2.58-4.027a4.716,4.716,0,0,1-2.643-.126Z" transform="translate(-236.49 -214.258)" fill="#f58220"/>
      <path id="Path_24000" data-name="Path 24000" d="M266.505,476.126a.463.463,0,0,0-.315-.126.515.515,0,0,0-.336.126l-.692.692a.444.444,0,0,0,0,.65.483.483,0,0,0,.65,0l.692-.692a.477.477,0,0,0,.126-.336A.33.33,0,0,0,266.505,476.126Z" transform="translate(-174.443 -425.835)" fill="#f58220"/>
      <path id="Path_24001" data-name="Path 24001" d="M238,442.526a.477.477,0,0,0-.336-.126.515.515,0,0,0-.336.126l-.881.881a.477.477,0,0,0-.126.336.515.515,0,0,0,.126.336.483.483,0,0,0,.65,0l.881-.881a.452.452,0,0,0,.021-.671Z" transform="translate(-146.815 -393.493)" fill="#f58220"/>
      <path id="Path_24002" data-name="Path 24002" d="M210.851,409.261a.515.515,0,0,0-.126-.336.477.477,0,0,0-.336-.126.515.515,0,0,0-.336.126l-1.049,1.049a.477.477,0,0,0-.126.336.515.515,0,0,0,.126.336.483.483,0,0,0,.65,0L210.7,409.6a.418.418,0,0,0,.147-.336Z" transform="translate(-120.404 -361.151)" fill="#f58220"/>
      <path id="Path_24003" data-name="Path 24003" d="M181.437,385.425a.5.5,0,0,0-.336-.147.515.515,0,0,0-.336.126l-.881.881a.477.477,0,0,0-.126.336.515.515,0,0,0,.126.336.477.477,0,0,0,.336.126.515.515,0,0,0,.336-.126l.881-.881A.483.483,0,0,0,181.437,385.425Z" transform="translate(-92.374 -338.51)" fill="#f58220"/>
      <path id="Path_24004" data-name="Path 24004" d="M257,42.111l.315-.168a2.336,2.336,0,0,1,1.133-.294,1.59,1.59,0,0,1,.315.021l.5.063a.591.591,0,0,0,.315.042,3.208,3.208,0,0,1,1.133-.461,1.524,1.524,0,0,1,.524.084l.923.315a4.592,4.592,0,0,0,1.321.231V34.686a1.083,1.083,0,0,0-1.091-1.091h-4.824a1.083,1.083,0,0,0-1.091,1.091v7.551h.084a.777.777,0,0,0,.441-.126Z" transform="translate(-166.218)" fill="#f58220"/>
      <g id="Group_17920" data-name="Group 17920" transform="translate(91.977 35.279)">
        <path id="Path_4504" data-name="Path 4504" d="M356.643,350.224h-.962a.382.382,0,0,1,0-.763h.962a.8.8,0,1,0,0-1.6h-.687a.382.382,0,1,1,0-.763h.687a1.562,1.562,0,1,1,0,3.124Z" transform="translate(-355.283 -347.1)" fill="#fff"/>
        <path id="Path_4505" data-name="Path 4505" d="M358.159,347.963h-2.784a.382.382,0,0,1,0-.763h2.784a.382.382,0,1,1,0,.763Zm0,1.16h-2.784a.382.382,0,0,1,0-.763h2.784a.382.382,0,1,1,0,.763Zm-.692,3.247a.4.4,0,0,1-.265-.107l-2.112-2.051a.382.382,0,0,1,.524-.555l.005.005,2.112,2.051a.384.384,0,0,1,.01.539A.377.377,0,0,1,357.467,352.37Z" transform="translate(-354.972 -347.195)" fill="#fff"/>
      </g>
    </g>
  </g>
</svg>
