<svg xmlns="http://www.w3.org/2000/svg" width="32" height="32" viewBox="0 0 32 32">
  <g id="Group_17323" data-name="Group 17323" transform="translate(-687 -187)">
    <circle id="Ellipse_5515" data-name="Ellipse 5515" cx="16" cy="16" r="16" transform="translate(687 187)" fill="#f9e9dc"/>
    <g id="Group_18940" data-name="Group 18940" transform="translate(5142.66 -5529.472)">
      <path id="Path_24196" data-name="Path 24196" d="M109.116,324.393a20.2,20.2,0,0,1-2.212.7,2.541,2.541,0,0,1-1.8,1.214,3.819,3.819,0,0,1-.724.1c-.646.039-1.41,0-2.251-.02h-.176a.44.44,0,0,1-.411-.352.421.421,0,0,1,.431-.47h.2a11.18,11.18,0,0,0,2.761-.059c1.175-.274,1.488-1.018,1.39-1.625a1,1,0,0,0-1.057-.9,18.764,18.764,0,0,1-2.8.059,18.445,18.445,0,0,0-3.035.1,11.429,11.429,0,0,0-4.209,2.036c-.764.568-1.605,1.233-2.114,1.645a.594.594,0,0,0-.078.842l2.447,2.917a.589.589,0,0,0,.822.078l.822-.7a.821.821,0,0,1,.7-.157,18.526,18.526,0,0,0,4.346.685c2.389.02,6.852-2.976,8.125-3.935a1.228,1.228,0,0,0-1.175-2.154Z" transform="translate(-4541.542 5410.994)" fill="#f58220"/>
      <g id="money" transform="translate(-4446.568 5722.472)">
        <path id="Path_23346" data-name="Path 23346" d="M11.446,45.99a1.527,1.527,0,0,1,1.481,1.471c.011,1.168,0,2.336,0,3.5a1.529,1.529,0,0,1-1.471,1.481c-2.658.025-5.316.008-7.975,0A1.527,1.527,0,0,1,2,50.974c-.011-1.168,0-2.336,0-3.5A1.53,1.53,0,0,1,3.472,45.99C6.13,45.965,8.788,45.981,11.446,45.99ZM2.993,50.55q0,.2,0,.406a.513.513,0,0,0,.487.5l.423.006-.01-.03A1.522,1.522,0,0,0,2.993,50.55Zm8.945,0a1.563,1.563,0,0,0-.907.9h.4a.512.512,0,0,0,.5-.487Q11.937,50.758,11.939,50.55Zm-4.464-3.07a1.739,1.739,0,1,1-.329,3.448A1.738,1.738,0,0,1,7.43,47.48Zm-3.578-.5H3.492a.513.513,0,0,0-.5.488c0,.141,0,.282,0,.422l.029-.01A1.521,1.521,0,0,0,3.9,46.983Zm7.134-.005a1.565,1.565,0,0,0,.9.907q0-.2,0-.4a.512.512,0,0,0-.488-.5Z" transform="translate(-1.995 -45.976)" fill="#f58220" fill-rule="evenodd"/>
        <path id="Path_23347" data-name="Path 23347" d="M15.195,48.214a.521.521,0,0,1,.426.486c0,1.127,0,2.255,0,3.382a2.184,2.184,0,0,1-2.137,2.12h-8.4a.5.5,0,0,1-.252-.911.422.422,0,0,1,.252-.07c2.8,0,5.61.026,8.414,0a1.187,1.187,0,0,0,1.14-1.152V48.7A.514.514,0,0,1,15.195,48.214Z" transform="translate(-3.308 -46.317)" fill="#f58220"/>
        <path id="Path_23348" data-name="Path 23348" d="M15.284,48.215a.527.527,0,0,1,.43.492c0,.947,0,1.9,0,2.842a2.807,2.807,0,0,1-2.744,2.727h-7.9a.516.516,0,0,1-.457-.692.505.505,0,0,1,.368-.294.514.514,0,0,1,.089-.008c2.637,0,5.273.008,7.909,0a1.794,1.794,0,0,0,1.74-1.752V48.707A.52.52,0,0,1,15.284,48.215Z" transform="translate(-1.912 -44.901)" fill="#f58220"/>
        <path id="Path_23349" data-name="Path 23349" d="M11.746,51a.745.745,0,1,0,.512,1.29A.762.762,0,0,0,11.771,51Z" transform="translate(-6.327 -48.539)" fill="#f58220" fill-rule="evenodd"/>
      </g>
    </g>
  </g>
</svg>
