<svg xmlns="http://www.w3.org/2000/svg" width="32" height="32" viewBox="0 0 32 32">
  <g id="Group_17323" data-name="Group 17323" transform="translate(-687 -187)">
    <circle id="Ellipse_5515" data-name="Ellipse 5515" cx="16" cy="16" r="16" transform="translate(687 187)" fill="#f9e9dc"/>
    <g id="personal-loan" transform="translate(683.284 185.086)">
      <path id="Path_24205" data-name="Path 24205" d="M22.658,12.264a2.931,2.931,0,1,1-2.931-2.931A2.931,2.931,0,0,1,22.658,12.264Z" transform="translate(-3.915 -0.783)" fill="#f58220"/>
      <path id="Path_24206" data-name="Path 24206" d="M18.945,9.1a2.38,2.38,0,1,0,2.38,2.38,2.38,2.38,0,0,0-2.38-2.38Zm-3.482,2.38a3.482,3.482,0,1,1,3.482,3.482A3.482,3.482,0,0,1,15.463,11.481ZM26.38,16.813a4.957,4.957,0,1,0,4.957,4.957A4.957,4.957,0,0,0,26.38,16.813Zm-6.059,4.957a6.059,6.059,0,1,1,6.059,6.059A6.059,6.059,0,0,1,20.322,21.771Z" transform="translate(-3.133)" fill="#f58220" fill-rule="evenodd"/>
      <path id="Path_24207" data-name="Path 24207" d="M18.133,25.482a.536.536,0,0,0-.1-.91,6.08,6.08,0,0,0-2.218-.415,5.71,5.71,0,0,0-5.667,4.35A.94.94,0,0,0,11.13,29.6h4.14a.579.579,0,0,0,.551-.43,7.713,7.713,0,0,1,2.312-3.688Z" transform="translate(0 -9.483)" fill="#f58220" fill-rule="evenodd"/>
      <path id="Path_24208" data-name="Path 24208" d="M39.574,33.508A5.508,5.508,0,1,1,34.066,28,5.508,5.508,0,0,1,39.574,33.508Z" transform="translate(-10.818 -11.738)" fill="#f58220"/>
      <path id="Path_24209" data-name="Path 24209" d="M33.284,27.769a4.957,4.957,0,1,0,4.957,4.957A4.957,4.957,0,0,0,33.284,27.769Zm-6.059,4.957a6.059,6.059,0,1,1,6.059,6.059A6.059,6.059,0,0,1,27.225,32.726Z" transform="translate(-10.036 -10.956)" fill="#f58220" fill-rule="evenodd"/>
      <path id="Path_24210" data-name="Path 24210" d="M35.295,36.732a.551.551,0,0,1,.551-.551h1.16a.551.551,0,0,1,0,1.1h-1.16A.551.551,0,0,1,35.295,36.732Zm0-3.478a.551.551,0,0,1,.551-.551h4.348a.551.551,0,0,1,0,1.1H35.846a.551.551,0,0,1-.551-.551Zm0,1.739a.551.551,0,0,1,.551-.551h4.348a.551.551,0,1,1,0,1.1H35.846A.551.551,0,0,1,35.295,34.992Z" transform="translate(-14.772 -14.497)" fill="#fff" fill-rule="evenodd"/>
      <path id="Path_24211" data-name="Path 24211" d="M35.456,41.285a.552.552,0,0,1,.779,0L39.31,44.36a.551.551,0,0,1-.779.779l-3.075-3.075A.551.551,0,0,1,35.456,41.285Z" transform="translate(-14.771 -19.44)" fill="#fff" fill-rule="evenodd"/>
      <path id="Path_24212" data-name="Path 24212" d="M40.418,34.992A1.267,1.267,0,0,0,39.084,33.8V32.7a2.295,2.295,0,1,1,0,4.581v-1.1A1.267,1.267,0,0,0,40.418,34.992Z" transform="translate(-16.996 -14.497)" fill="#fff" fill-rule="evenodd"/>
    </g>
  </g>
</svg>
