<svg xmlns="http://www.w3.org/2000/svg" width="24" height="24" viewBox="0 0 24 24">
  <g id="Group_13037" data-name="Group 13037" transform="translate(-1258 -33)" opacity="0.6">
    <rect id="Rectangle_5273" data-name="Rectangle 5273" width="24" height="24" transform="translate(1258 33)" fill="#fff" opacity="0"/>
    <path id="Icon_ionic-ios-help-circle" data-name="Icon ionic-ios-help-circle" d="M12.375,3.375a9,9,0,1,0,9,9A9,9,0,0,0,12.375,3.375Zm-.186,13.154a.892.892,0,1,1,.93-.891A.9.9,0,0,1,12.189,16.529Zm1.739-4.193c-.753.437-1.008.757-1.008,1.311v.342h-1.5l-.013-.372a1.8,1.8,0,0,1,1.021-1.9c.731-.437,1.038-.714,1.038-1.25a1.05,1.05,0,0,0-1.164-.93,1.1,1.1,0,0,0-1.16,1.064H9.606c.03-1.393,1.06-2.38,2.8-2.38,1.623,0,2.739.9,2.739,2.194A2.118,2.118,0,0,1,13.928,12.336Z" transform="translate(1257.625 32.625)" fill="#fff"/>
  </g>
</svg>
