<svg width="20" height="20" viewBox="0 0 20 20" fill="none" xmlns="http://www.w3.org/2000/svg">
<path d="M10 15.625C10.2833 15.625 10.5167 15.525 10.7 15.325C10.9 15.125 11 14.8833 11 14.6C11 14.3167 10.9 14.075 10.7 13.875C10.5167 13.675 10.2833 13.575 10 13.575C9.7 13.575 9.45 13.675 9.25 13.875C9.06667 14.075 8.975 14.3167 8.975 14.6C8.975 14.8833 9.06667 15.125 9.25 15.325C9.45 15.525 9.7 15.625 10 15.625ZM10.075 5.725C10.5917 5.725 11 5.86667 11.3 6.15C11.6167 6.41667 11.775 6.78333 11.775 7.25C11.775 7.55 11.6833 7.85 11.5 8.15C11.3333 8.43333 11.075 8.73333 10.725 9.05C10.2417 9.46667 9.89167 9.86667 9.675 10.25C9.45833 10.6167 9.34167 11 9.325 11.4C9.30833 11.5667 9.36667 11.7167 9.5 11.85C9.63333 11.9667 9.79167 12.025 9.975 12.025C10.1583 12.025 10.3167 11.9667 10.45 11.85C10.6 11.7167 10.6917 11.5583 10.725 11.375C10.775 11.0917 10.8833 10.8333 11.05 10.6C11.2167 10.35 11.4833 10.0417 11.85 9.675C12.3667 9.19167 12.725 8.75833 12.925 8.375C13.125 7.99167 13.225 7.575 13.225 7.125C13.225 6.325 12.9333 5.675 12.35 5.175C11.7667 4.65833 11.0167 4.4 10.1 4.4C9.48333 4.4 8.91667 4.53333 8.4 4.8C7.88333 5.05 7.475 5.43333 7.175 5.95C7.09167 6.11667 7.05833 6.28333 7.075 6.45C7.10833 6.6 7.20833 6.725 7.375 6.825C7.525 6.925 7.7 6.95833 7.9 6.925C8.11667 6.89167 8.29167 6.78333 8.425 6.6C8.625 6.33333 8.85 6.125 9.1 5.975C9.36667 5.80833 9.69167 5.725 10.075 5.725ZM10 19.5C8.68333 19.5 7.45 19.25 6.3 18.75C5.15 18.25 4.14167 17.575 3.275 16.725C2.425 15.875 1.75 14.875 1.25 13.725C0.75 12.5583 0.5 11.3167 0.5 10C0.5 8.68333 0.75 7.45 1.25 6.3C1.75 5.13333 2.425 4.125 3.275 3.275C4.14167 2.425 5.15 1.75 6.3 1.25C7.45 0.749999 8.68333 0.499999 10 0.499999C11.3333 0.499999 12.575 0.749999 13.725 1.25C14.875 1.75 15.875 2.425 16.725 3.275C17.5917 4.125 18.2667 5.13333 18.75 6.3C19.25 7.45 19.5 8.68333 19.5 10C19.5 11.3167 19.25 12.5583 18.75 13.725C18.2667 14.875 17.5917 15.875 16.725 16.725C15.875 17.575 14.875 18.25 13.725 18.75C12.575 19.25 11.3333 19.5 10 19.5Z" fill="#00897B"/>
</svg>
