<svg xmlns="http://www.w3.org/2000/svg" width="24" height="24" viewBox="0 0 24 24">
  <g id="Group_13034" data-name="Group 13034" transform="translate(-780 -56)">
    <rect id="Rectangle_4096" data-name="Rectangle 4096" width="24" height="24" transform="translate(780 56)" fill="#007dc5" opacity="0"/>
    <g id="Group_13033" data-name="Group 13033" transform="translate(-1.332 3.781)">
      <g id="Group_13032" data-name="Group 13032" transform="translate(-20146.168 -8729.438)">
        <path id="Path_17543" data-name="Path 17543" d="M20.636,40.759H3.36a.36.36,0,1,0,0,.72H20.636a.36.36,0,1,0,0-.72Zm-10.8-.72h4.319a.361.361,0,0,0,.36-.36V35.36a.361.361,0,0,0-.36-.36H9.838a.361.361,0,0,0-.36.36v4.319A.361.361,0,0,0,9.838,40.039Zm-5.759,0H8.4a.361.361,0,0,0,.36-.36V36.8a.361.361,0,0,0-.36-.36H4.08a.361.361,0,0,0-.36.36v2.879A.361.361,0,0,0,4.08,40.039Z" transform="translate(20926 8762.398)" fill="#007dc5"/>
        <path id="Path_17544" data-name="Path 17544" d="M37.36,34.918h4.319a.361.361,0,0,0,.36-.36v-7.2a.361.361,0,0,0-.36-.36H37.36a.361.361,0,0,0-.36.36v7.2A.361.361,0,0,0,37.36,34.918Z" transform="translate(20904.236 8767.52)" fill="#007dc5"/>
        <path id="Path_17545" data-name="Path 17545" d="M5.36,26.119a.359.359,0,0,0,.161-.038L14.872,21.4l-.477.954a.36.36,0,0,0,.644.322l1.08-2.16A.36.36,0,0,0,15.8,20H13.278a.36.36,0,1,0,0,.72h1.355L5.2,25.437a.36.36,0,0,0,.161.682Z" transform="translate(20924.721 8772)" fill="#007dc5"/>
      </g>
      <path id="Subtraction_6" data-name="Subtraction 6" d="M-20072.166-8822a5.008,5.008,0,0,1-5-5,5.011,5.011,0,0,1,5-5,5.007,5.007,0,0,1,5,5A5,5,0,0,1-20072.166-8822Zm-.906-4.389,1.27,2.056h.932l-1.375-2.137a1.483,1.483,0,0,0,1.32-1.325h.75v-.474h-.76a1.372,1.372,0,0,0-.576-.922h1.336v-.479h-3.77v.705h1.215a.9.9,0,0,1,.963.7h-2.178v.474h2.172a.923.923,0,0,1-.957.7h-1.215v.705Z" transform="translate(20871 8886.003)" fill="#007dc5"/>
    </g>
  </g>
</svg>
