<svg xmlns="http://www.w3.org/2000/svg" width="24" height="24" viewBox="0 0 24 24">
  <g id="Group_13022" data-name="Group 13022" transform="translate(-343 -57)">
    <rect id="Rectangle_4093" data-name="Rectangle 4093" width="24" height="24" transform="translate(343 57)" fill="#007dc5" opacity="0"/>
    <g id="Group_8436" data-name="Group 8436" transform="translate(133.283 -165.718)">
      <path id="Path_4105" data-name="Path 4105" d="M117.7,27.438l.457-2.056a.734.734,0,0,0-1.045-.816l-.186.093-.426-.426a.8.8,0,0,0-1.125,0l-.426.426-.186-.093a.734.734,0,0,0-1.045.816l.457,2.056a.659.659,0,0,0,.643.516h2.238a.659.659,0,0,0,.643-.516Z" transform="translate(105.514 201.717)" fill="#007dc5"/>
      <path id="Subtraction_5" data-name="Subtraction 5" d="M-20203.641-8649.755h-3.824a3.8,3.8,0,0,1-3.82-3.773v-.938a11.49,11.49,0,0,1,4.139-8.816h3.186a11.487,11.487,0,0,1,4.139,8.816v.938A3.8,3.8,0,0,1-20203.641-8649.755Zm-3.408-5.315,1.43,2.313h1.045l-1.547-2.4a1.645,1.645,0,0,0,1.48-1.5h.848v-.527h-.852a1.547,1.547,0,0,0-.65-1.035h1.5v-.543h-4.24v.792h1.369a1,1,0,0,1,1.08.786h-2.449v.527h2.439a1.024,1.024,0,0,1-1.07.8h-1.369v.792Z" transform="translate(20427 8893.477)" fill="#007dc5"/>
      <rect id="Rectangle_1703" data-name="Rectangle 1703" width="3.217" height="0.804" rx="0.402" transform="translate(219.716 229.604)" fill="#007dc5"/>
    </g>
  </g>
</svg>
