<svg width="19" height="20" viewBox="0 0 19 20" fill="none" xmlns="http://www.w3.org/2000/svg">
<path d="M15.8102 2.47C15.7302 2.47 15.6502 2.45 15.5802 2.41C13.6602 1.42 12.0002 1 10.0102 1C8.03023 1 6.15023 1.47 4.44023 2.41C4.20023 2.54 3.90023 2.45 3.76023 2.21C3.63023 1.97 3.72023 1.66 3.96023 1.53C5.82023 0.52 7.86023 0 10.0102 0C12.1402 0 14.0002 0.47 16.0402 1.52C16.2902 1.65 16.3802 1.95 16.2502 2.19C16.1602 2.37 15.9902 2.47 15.8102 2.47ZM1.50023 7.72C1.40023 7.72 1.30023 7.69 1.21023 7.63C0.980229 7.47 0.930229 7.16 1.09023 6.93C2.08023 5.53 3.34023 4.43 4.84023 3.66C7.98023 2.04 12.0002 2.03 15.1502 3.65C16.6502 4.42 17.9102 5.51 18.9002 6.9C19.0602 7.12 19.0102 7.44 18.7802 7.6C18.5502 7.76 18.2402 7.71 18.0802 7.48C17.1802 6.22 16.0402 5.23 14.6902 4.54C11.8202 3.07 8.15023 3.07 5.29023 4.55C3.93023 5.25 2.79023 6.25 1.89023 7.51C1.81023 7.65 1.66023 7.72 1.50023 7.72ZM7.75023 19.79C7.62023 19.79 7.49023 19.74 7.40023 19.64C6.53023 18.77 6.06023 18.21 5.39023 17C4.70023 15.77 4.34023 14.27 4.34023 12.66C4.34023 9.69 6.88023 7.27 10.0002 7.27C13.1202 7.27 15.6602 9.69 15.6602 12.66C15.6602 12.94 15.4402 13.16 15.1602 13.16C14.8802 13.16 14.6602 12.94 14.6602 12.66C14.6602 10.24 12.5702 8.27 10.0002 8.27C7.43023 8.27 5.34023 10.24 5.34023 12.66C5.34023 14.1 5.66023 15.43 6.27023 16.51C6.91023 17.66 7.35023 18.15 8.12023 18.93C8.31023 19.13 8.31023 19.44 8.12023 19.64C8.01023 19.74 7.88023 19.79 7.75023 19.79ZM14.9202 17.94C13.7302 17.94 12.6802 17.64 11.8202 17.05C10.3302 16.04 9.44023 14.4 9.44023 12.66C9.44023 12.38 9.66023 12.16 9.94023 12.16C10.2202 12.16 10.4402 12.38 10.4402 12.66C10.4402 14.07 11.1602 15.4 12.3802 16.22C13.0902 16.7 13.9202 16.93 14.9202 16.93C15.1602 16.93 15.5602 16.9 15.9602 16.83C16.2302 16.78 16.4902 16.96 16.5402 17.24C16.5902 17.51 16.4102 17.77 16.1302 17.82C15.5602 17.93 15.0602 17.94 14.9202 17.94ZM12.9102 20C12.8702 20 12.8202 19.99 12.7802 19.98C11.1902 19.54 10.1502 18.95 9.06023 17.88C7.66023 16.49 6.89023 14.64 6.89023 12.66C6.89023 11.04 8.27023 9.72 9.97023 9.72C11.6702 9.72 13.0502 11.04 13.0502 12.66C13.0502 13.73 13.9802 14.6 15.1302 14.6C16.2802 14.6 17.2102 13.73 17.2102 12.66C17.2102 8.89 13.9602 5.83 9.96023 5.83C7.12023 5.83 4.52023 7.41 3.35023 9.86C2.96023 10.67 2.76023 11.62 2.76023 12.66C2.76023 13.44 2.83023 14.67 3.43023 16.27C3.53023 16.53 3.40023 16.82 3.14023 16.91C2.88023 17.01 2.59023 16.87 2.50023 16.62C2.01023 15.31 1.77023 14.01 1.77023 12.66C1.77023 11.46 2.00023 10.37 2.45023 9.42C3.78023 6.63 6.73023 4.82 9.96023 4.82C14.5102 4.82 18.2102 8.33 18.2102 12.65C18.2102 14.27 16.8302 15.59 15.1302 15.59C13.4302 15.59 12.0502 14.27 12.0502 12.65C12.0502 11.58 11.1202 10.71 9.97023 10.71C8.82023 10.71 7.89023 11.58 7.89023 12.65C7.89023 14.36 8.55023 15.96 9.76023 17.16C10.7102 18.1 11.6202 18.62 13.0302 19.01C13.3002 19.08 13.4502 19.36 13.3802 19.62C13.3302 19.85 13.1202 20 12.9102 20Z" fill="#424242"/>
</svg>
